<svg width="25" height="24" viewBox="0 0 25 24" fill="none" xmlns="http://www.w3.org/2000/svg">
<g clip-path="url(#clip0_41_6587)">
<path fill-rule="evenodd" clip-rule="evenodd" d="M20.253 4.659C20.3395 4.56011 20.4056 4.44516 20.4477 4.32071C20.4897 4.19626 20.5069 4.06475 20.4981 3.93368C20.4893 3.80261 20.4548 3.67455 20.3965 3.55682C20.3383 3.43908 20.2574 3.33398 20.1585 3.2475C20.0596 3.16102 19.9447 3.09487 19.8202 3.05282C19.6958 3.01077 19.5642 2.99364 19.4332 3.00242C19.3021 3.01119 19.1741 3.0457 19.0563 3.10396C18.9386 3.16223 18.8335 3.24311 18.747 3.342L13.637 9.182L9.3 3.4C9.20685 3.2758 9.08607 3.175 8.94721 3.10557C8.80836 3.03614 8.65525 3 8.5 3H4.5C4.31429 3 4.13225 3.05171 3.97427 3.14935C3.81629 3.24698 3.68863 3.38668 3.60557 3.55279C3.52252 3.71889 3.48736 3.90484 3.50404 4.08981C3.52072 4.27477 3.58857 4.45143 3.7 4.6L10.137 13.182L4.747 19.342C4.66053 19.4409 4.59437 19.5558 4.55232 19.6803C4.51027 19.8047 4.49314 19.9363 4.50192 20.0673C4.51069 20.1984 4.5452 20.3264 4.60347 20.4442C4.66173 20.5619 4.74261 20.667 4.8415 20.7535C4.94039 20.84 5.05534 20.9061 5.17979 20.9482C5.30424 20.9902 5.43575 21.0074 5.56682 20.9986C5.69789 20.9898 5.82595 20.9553 5.94368 20.897C6.06142 20.8388 6.16652 20.7579 6.253 20.659L11.363 14.818L15.7 20.6C15.7931 20.7242 15.9139 20.825 16.0528 20.8944C16.1916 20.9639 16.3448 21 16.5 21H20.5C20.6857 21 20.8678 20.9483 21.0257 20.8507C21.1837 20.753 21.3114 20.6133 21.3944 20.4472C21.4775 20.2811 21.5126 20.0952 21.496 19.9102C21.4793 19.7252 21.4114 19.5486 21.3 19.4L14.863 10.818L20.253 4.659ZM17 19L6.5 5H8L18.5 19H17Z" fill="#141417"/>
</g>
<defs>
<clipPath id="clip0_41_6587">
<rect width="24" height="24" fill="white" transform="translate(0.5)"/>
</clipPath>
</defs>
</svg>
