<svg width="215" height="6" viewBox="0 0 215 6" fill="none" xmlns="http://www.w3.org/2000/svg">
<path d="M0.333333 3C0.333333 4.47276 1.52724 5.66667 3 5.66667C4.47276 5.66667 5.66667 4.47276 5.66667 3C5.66667 1.52724 4.47276 0.333333 3 0.333333C1.52724 0.333333 0.333333 1.52724 0.333333 3ZM209.333 3C209.333 4.47276 210.527 5.66667 212 5.66667C213.473 5.66667 214.667 4.47276 214.667 3C214.667 1.52724 213.473 0.333333 212 0.333333C210.527 0.333333 209.333 1.52724 209.333 3ZM3 3.5H8.80556V2.5H3V3.5ZM20.4167 3.5H32.0278V2.5H20.4167V3.5ZM43.6389 3.5H55.25V2.5H43.6389V3.5ZM66.8611 3.5H78.4722V2.5H66.8611V3.5ZM90.0833 3.5H101.694V2.5H90.0833V3.5ZM113.306 3.5H124.917V2.5H113.306V3.5ZM136.528 3.5H148.139V2.5H136.528V3.5ZM159.75 3.5H171.361V2.5H159.75V3.5ZM182.972 3.5H194.583V2.5H182.972V3.5ZM206.194 3.5H212V2.5H206.194V3.5Z" fill="#FF922E"/>
</svg>
