<svg width="146" height="19" viewBox="0 0 146 19" fill="none" xmlns="http://www.w3.org/2000/svg">
<path fill-rule="evenodd" clip-rule="evenodd" d="M27.1739 11C27.8511 13.8667 30.4264 16 33.5 16C37.0899 16 40 13.0899 40 9.5C40 5.91015 37.0899 3 33.5 3C30.4264 3 27.8511 5.1333 27.1739 8L8.74394 8C8.12619 6.25221 6.45933 5 4.5 5C2.01472 5 -1.75489e-07 7.01472 -2.84124e-07 9.5C-3.92759e-07 11.9853 2.01472 14 4.5 14C6.45933 14 8.12619 12.7478 8.74394 11L27.1739 11Z" fill="#141417"/>
<path d="M55.808 4.44C58.256 4.44 59.696 5.672 59.696 7.832C59.696 9.928 58.256 11.16 55.808 11.16H53.584V15H51.376V4.44H55.808ZM55.472 9.448C56.848 9.448 57.456 8.888 57.456 7.816C57.456 6.744 56.848 6.2 55.472 6.2H53.584V9.448H55.472ZM66.1838 6.84C66.5357 6.84 66.8558 6.904 67.0477 7.016L66.7758 8.936C66.5518 8.792 66.1838 8.696 65.7678 8.696C64.8078 8.696 63.8477 9.4 63.8477 10.856V15H61.6557V7H63.5598L63.7037 8.568C64.1198 7.464 64.9358 6.84 66.1838 6.84ZM75.8815 10.968C75.8815 11.192 75.8495 11.624 75.8175 11.832H70.1535C70.3775 12.984 71.0815 13.528 72.1535 13.528C73.0815 13.528 73.6895 13.176 73.9135 12.536L75.7055 13.192C75.1935 14.472 73.9615 15.16 72.1535 15.16C69.4975 15.16 67.9935 13.624 67.9935 11C67.9935 8.376 69.4495 6.84 72.0255 6.84C74.5215 6.84 75.8815 8.344 75.8815 10.968ZM72.0095 8.456C70.9535 8.456 70.3135 9.08 70.1375 10.296H73.8655C73.6895 9.096 73.0175 8.456 72.0095 8.456ZM80.986 15.16C79.338 15.16 78.01 14.712 77.274 13.624L78.554 12.312C79.002 13.272 79.866 13.56 80.954 13.56C81.898 13.56 82.426 13.272 82.426 12.84C82.426 12.472 81.994 12.248 80.826 12.008C78.33 11.512 77.498 10.744 77.498 9.416C77.498 8.12 78.73 6.84 81.098 6.84C82.938 6.84 83.93 7.384 84.666 8.536L83.306 9.688C82.842 8.856 82.202 8.44 81.13 8.44C80.234 8.44 79.69 8.792 79.69 9.208C79.69 9.64 80.09 9.912 81.434 10.184C83.77 10.648 84.634 11.352 84.634 12.68C84.634 14.12 83.37 15.16 80.986 15.16ZM93.854 13.672C94.046 13.672 94.238 13.656 94.398 13.608L94.238 14.936C93.95 15.08 93.598 15.16 93.198 15.16C92.238 15.16 91.582 14.824 91.358 13.96C90.878 14.744 89.87 15.16 88.526 15.16C87.006 15.16 86.046 14.456 86.046 13.112C86.046 11.864 87.022 10.984 89.166 10.584L91.086 10.216V9.832C91.086 8.984 90.59 8.44 89.726 8.44C88.798 8.44 88.126 8.792 87.886 9.8L86.142 9.064C86.478 7.704 87.678 6.84 89.63 6.84C91.854 6.84 93.262 7.8 93.262 9.784V13.064C93.262 13.48 93.438 13.672 93.854 13.672ZM89.214 13.672C90.046 13.672 91.086 13.24 91.086 12.392V11.56L89.374 11.944C88.67 12.104 88.302 12.36 88.302 12.888C88.302 13.4 88.638 13.672 89.214 13.672ZM98.0495 3.496V12.456C98.0495 13.208 98.2415 13.48 98.8335 13.48C99.2015 13.48 99.4255 13.432 99.7775 13.304L99.5855 14.824C99.2335 15.032 98.6255 15.16 98.0975 15.16C96.5455 15.16 95.8575 14.44 95.8575 12.776V3.496H98.0495ZM108.631 10.968C108.631 11.192 108.599 11.624 108.567 11.832H102.903C103.127 12.984 103.831 13.528 104.903 13.528C105.831 13.528 106.439 13.176 106.663 12.536L108.455 13.192C107.943 14.472 106.711 15.16 104.903 15.16C102.247 15.16 100.743 13.624 100.743 11C100.743 8.376 102.199 6.84 104.775 6.84C107.271 6.84 108.631 8.344 108.631 10.968ZM104.759 8.456C103.703 8.456 103.063 9.08 102.887 10.296H106.615C106.439 9.096 105.767 8.456 104.759 8.456ZM116.543 9.24L115.087 15H112.543L109.471 4.44H111.855L113.903 13.256L116.015 4.44H118.127L120.271 13.256L122.319 4.44H124.591L121.519 15H119.039L117.567 9.24L117.071 6.744H117.039L116.543 9.24ZM127.333 5.848C126.421 5.848 125.973 5.464 125.973 4.68C125.973 3.896 126.421 3.496 127.333 3.496C128.245 3.496 128.693 3.896 128.693 4.68C128.693 5.464 128.245 5.848 127.333 5.848ZM128.421 7V15H126.229V7H128.421ZM135.433 6.84C135.785 6.84 136.105 6.904 136.297 7.016L136.025 8.936C135.801 8.792 135.433 8.696 135.017 8.696C134.057 8.696 133.097 9.4 133.097 10.856V15H130.905V7H132.809L132.953 8.568C133.369 7.464 134.185 6.84 135.433 6.84ZM145.13 10.968C145.13 11.192 145.098 11.624 145.066 11.832H139.402C139.626 12.984 140.33 13.528 141.402 13.528C142.33 13.528 142.938 13.176 143.162 12.536L144.954 13.192C144.442 14.472 143.21 15.16 141.402 15.16C138.746 15.16 137.242 13.624 137.242 11C137.242 8.376 138.698 6.84 141.274 6.84C143.77 6.84 145.13 8.344 145.13 10.968ZM141.258 8.456C140.202 8.456 139.562 9.08 139.386 10.296H143.114C142.938 9.096 142.266 8.456 141.258 8.456Z" fill="#141417"/>
</svg>
